<?xml version="1.0" encoding="UTF-8"?>
<!DOCTYPE svg PUBLIC "-//W3C//DTD SVG 1.1//EN" "http://www.w3.org/Graphics/SVG/1.1/DTD/svg11.dtd">
<!-- Creator: CorelDRAW X7 -->
<svg xmlns="http://www.w3.org/2000/svg" xml:space="preserve" width="207px" height="240px" version="1.1" style="shape-rendering:geometricPrecision; text-rendering:geometricPrecision; image-rendering:optimizeQuality; fill-rule:evenodd; clip-rule:evenodd"
viewBox="0 0 207 241"
 xmlns:xlink="http://www.w3.org/1999/xlink">
 <defs>
  <style type="text/css">
   <![CDATA[
    .fil2 {fill:#FEFEFE}
    .fil0 {fill:#FDD100}
    .fil1 {fill:#2F318B}
   ]]>
  </style>
 </defs>
 <g id="Layer_x0020_1">
  <metadata id="CorelCorpID_0Corel-Layer"/>
  <g id="_2320935285024">
   <path class="fil0" d="M202 115l5 0 -3 17 -5 -1c-2,4 -3,9 -5,13l5 2 -8 15 -5 -3c-2,4 -5,7 -8,11l5 4 -13 12 -4 -5c-3,3 -7,6 -11,8l4 6 -16 8 -2 -7c-4,2 -8,3 -13,4l2 7 -17 3 -1 -7c-2,0 -4,1 -6,1l0 38 -5 -1c0,-4 -6,-16 -12,-24 -6,-8 -16,-14 -21,-15 -14,-6 -27,-14 -38,-25 -18,-18 -30,-44 -30,-73l0 0 0 0c0,-28 12,-54 30,-73 19,-18 45,-30 73,-30l0 0 0 0c29,0 55,12 74,30 18,19 30,45 30,73l0 0 0 0c0,3 0,5 0,7l-5 0c0,2 0,3 0,5zm-101 114l0 -35c-38,-1 -70,-28 -80,-64 -5,-2 -9,-4 -13,-6 4,18 14,35 27,48 9,10 21,17 33,22 4,2 9,4 13,6 10,7 17,16 20,29zm-73 -97c10,32 39,55 73,56l0 -27c0,-1 1,-3 1,-4 2,-6 7,-10 13,-13 7,-2 15,-4 21,-4 2,0 3,0 5,0 -2,-1 -4,-2 -6,-2l-6 0 -3 0 1 -3c0,-1 0,-2 0,-4l0 0c-1,-1 -3,-2 -7,-2l-19 0 0 -19 -95 0c9,13 26,20 40,23 -7,0 -11,0 -18,-1zm78 -13c0,-1 1,-1 2,-2 3,-3 8,-5 13,-7l-15 0 0 9zm28 -9c-7,1 -18,5 -24,10 -2,1 -3,2 -4,3 0,1 0,1 0,2l0 0 13 0c6,0 9,2 11,4l0 0c0,2 0,3 0,5l3 0c6,0 10,3 12,6 0,0 0,1 1,1 0,1 0,1 0,2l0 0 1 4 -4 -1c-2,-1 -5,-1 -8,-1 -6,0 -12,1 -18,3 -5,2 -9,6 -11,10 0,1 0,2 0,3l0 26c22,0 42,-10 57,-24 13,-14 22,-33 24,-53l-53 0zm-3 -86c8,11 15,23 19,35 5,-1 10,-3 15,-5 4,-1 7,-3 11,-5 2,-1 4,-2 6,-3 -3,-4 -6,-8 -10,-11 -7,-7 -15,-13 -23,-18 -2,1 -3,2 -4,2 -2,1 -4,2 -7,3 -2,1 -5,1 -7,2zm20 39c2,9 4,18 4,28 0,4 -1,8 -1,13l47 0c0,0 0,-1 0,-1l0 0 0 0c0,-20 -6,-38 -17,-54 -2,2 -4,3 -7,4 -3,2 -7,4 -11,5 -5,2 -10,4 -15,5zm-1 41c0,-5 0,-9 0,-13 0,-9 -1,-18 -3,-27 -14,4 -27,6 -41,6l0 34 44 0zm-5 -44c-4,-12 -10,-24 -19,-35 -6,2 -13,3 -20,3l0 38c13,0 27,-2 39,-6zm-64 -35c-9,11 -16,23 -20,36 13,3 27,5 40,5l0 -38c-7,0 -14,-1 -20,-3zm-21 40c-2,8 -3,17 -3,26 0,4 0,8 0,13l44 0 0 -34c-14,0 -28,-2 -41,-5zm-7 39c0,-5 -1,-9 -1,-13 0,-10 2,-19 4,-27 -1,-1 -2,-1 -3,-1 -11,-4 -21,-8 -31,-13 -10,15 -16,34 -16,53l0 0 0 0c0,0 0,1 0,1l47 0zm4 -45c4,-12 11,-24 19,-35 0,0 0,0 -1,0 -6,-2 -11,-4 -17,-7 -8,5 -16,11 -23,18 -4,3 -7,7 -10,11 9,5 19,9 29,13 1,0 2,0 3,0zm6 -44c5,2 9,3 13,5 2,0 3,0 4,1 8,2 16,3 23,3l0 0c12,0 23,-2 34,-6 2,-1 4,-2 6,-3 0,0 1,0 1,0 -12,-6 -26,-9 -41,-9l0 0 0 0c-14,0 -27,3 -40,9z"/>
   <path class="fil1" d="M63 15c5,2 9,3 13,5 2,0 3,0 4,1 8,2 16,3 23,3l0 0c12,0 23,-2 34,-6 2,-1 4,-2 6,-3 0,0 1,0 1,0 -12,-6 -26,-9 -41,-9l0 0 0 0c-14,0 -27,3 -40,9zm58 117c1,0 2,1 2,2 0,1 -1,2 -2,2 -1,0 -2,-1 -2,-2 0,-1 1,-2 2,-2zm-20 51l0 -22c0,-1 1,-3 1,-4 2,-6 7,-10 13,-13 7,-2 15,-4 21,-4 2,0 3,0 5,0 -2,-1 -4,-2 -6,-2l-6 0 -3 0 1 -3c0,-1 0,-2 0,-4l0 0c-1,-1 -3,-2 -7,-2l-19 0 0 -19 -95 0c9,13 26,20 40,23 -5,0 -8,0 -12,0 10,28 36,49 67,50zm0 46l0 -35c-38,-1 -70,-28 -80,-64 -5,-2 -9,-4 -13,-6 4,18 14,35 27,48 9,10 21,17 33,22 4,2 9,4 13,6 10,7 17,16 20,29zm33 -119c-7,1 -18,5 -24,10 -2,1 -3,2 -4,3 0,1 0,1 0,2l0 0 13 0c6,0 9,2 11,4l0 0c0,2 0,3 0,5l3 0c6,0 10,3 12,6 0,0 0,1 1,1 0,1 0,1 0,2l0 0 1 4 -4 -1c-2,-1 -5,-1 -8,-1 -6,0 -12,1 -18,3 -5,2 -9,6 -11,10 0,1 0,2 0,3l0 26c22,0 42,-10 57,-24 13,-14 22,-33 24,-53l-53 0zm-3 -86c8,11 15,23 19,35 5,-1 10,-3 15,-5 4,-1 7,-3 11,-5 2,-1 4,-2 6,-3 -3,-4 -6,-8 -10,-11 -7,-7 -15,-13 -23,-18 -2,1 -3,2 -4,2 -2,1 -4,2 -7,3 -2,1 -5,1 -7,2zm20 39c2,9 4,18 4,28 0,4 -1,8 -1,13l47 0c0,0 0,-1 0,-1l0 0 0 0c0,-20 -6,-38 -17,-54 -2,2 -4,3 -7,4 -3,2 -7,4 -11,5 -5,2 -10,4 -15,5zm-1 41c0,-5 0,-9 0,-13 0,-9 -1,-18 -3,-27 -14,4 -27,6 -41,6l0 34 44 0zm-5 -44c-4,-12 -10,-24 -19,-35 -6,2 -13,3 -20,3l0 38c13,0 27,-2 39,-6zm-64 -35c-9,11 -16,23 -20,36 13,3 27,5 40,5l0 -38c-7,0 -14,-1 -20,-3zm-21 40c-2,8 -3,17 -3,26 0,4 0,8 0,13l44 0 0 -34c-14,0 -28,-2 -41,-5zm-7 39c0,-5 -1,-9 -1,-13 0,-10 2,-19 4,-27 -1,-1 -2,-1 -3,-1 -11,-4 -21,-8 -31,-13 -10,15 -16,34 -16,53l0 0 0 0c0,0 0,1 0,1l47 0zm4 -45c4,-12 11,-24 19,-35 0,0 0,0 -1,0 -6,-2 -11,-4 -17,-7 -8,5 -16,11 -23,18 -4,3 -7,7 -10,11 9,5 19,9 29,13 1,0 2,0 3,0z"/>
   <path class="fil2" d="M28 132c10,32 39,55 73,56l0 -5c-31,-1 -57,-22 -67,-50 -2,-1 -4,-1 -6,-1zm93 0c1,0 2,1 2,2 0,1 -1,2 -2,2 -1,0 -2,-1 -2,-2 0,-1 1,-2 2,-2zm-15 -13c0,-1 1,-1 2,-2 3,-3 8,-5 13,-7l-15 0 0 9z"/>
  </g>
 </g>
</svg>
